<?xml version="1.0" encoding="iso-8859-1"?>
<!-- Generator: Adobe Illustrator 19.0.0, SVG Export Plug-In . SVG Version: 6.00 Build 0)  -->
<svg version="1.1" id="Capa_1" xmlns="http://www.w3.org/2000/svg" xmlns:xlink="http://www.w3.org/1999/xlink" x="0px" y="0px"
	 viewBox="0 0 512 512" style="enable-background:new 0 0 512 512;" xml:space="preserve">
<path style="fill:#2196F3;" d="M510.88,266.112C508.48,260,502.56,256,496,256h-80V16c0-8.832-7.168-16-16-16H112
	c-8.832,0-16,7.168-16,16v240H16c-6.592,0-12.48,4-14.88,10.112S0.288,279.2,5.088,283.68l240,224
	c3.072,2.88,6.976,4.32,10.912,4.32c3.936,0,7.84-1.44,10.912-4.32l240-224C511.712,279.232,513.28,272.256,510.88,266.112z"/>
<g>
	<path style="fill:#FAFAFA;" d="M208,160c-26.464,0-48-21.536-48-48s21.536-48,48-48s48,21.536,48,48S234.464,160,208,160z M208,96
		c-8.832,0-16,7.168-16,16s7.168,16,16,16s16-7.168,16-16S216.832,96,208,96z"/>
	<path style="fill:#FAFAFA;" d="M304,288c-26.464,0-48-21.536-48-48s21.536-48,48-48s48,21.536,48,48S330.464,288,304,288z M304,224
		c-8.8,0-16,7.168-16,16s7.2,16,16,16s16-7.168,16-16S312.8,224,304,224z"/>
	<path style="fill:#FAFAFA;" d="M176,288c-3.616,0-7.264-1.216-10.24-3.712c-6.784-5.632-7.712-15.744-2.048-22.528l160-192
		c5.696-6.784,15.776-7.616,22.528-2.048c6.784,5.664,7.68,15.744,2.016,22.56l-160,192C185.12,286.048,180.576,288,176,288z"/>
</g>
<g>
</g>
<g>
</g>
<g>
</g>
<g>
</g>
<g>
</g>
<g>
</g>
<g>
</g>
<g>
</g>
<g>
</g>
<g>
</g>
<g>
</g>
<g>
</g>
<g>
</g>
<g>
</g>
<g>
</g>
</svg>
