<?xml version="1.0" encoding="iso-8859-1"?>
<!-- Generator: Adobe Illustrator 19.0.0, SVG Export Plug-In . SVG Version: 6.00 Build 0)  -->
<svg version="1.1" id="Layer_1" xmlns="http://www.w3.org/2000/svg" xmlns:xlink="http://www.w3.org/1999/xlink" x="0px" y="0px"
	 viewBox="0 0 512 512" style="enable-background:new 0 0 512 512;" xml:space="preserve">
<path style="fill:#FFCD00;" d="M256,512c-68.48,0-132.797-26.6-181.096-74.904C26.6,388.797,0,324.48,0,256
	c0-68.486,26.6-132.797,74.904-181.096C123.204,26.6,187.515,0,256,0c68.48,0,132.797,26.6,181.096,74.904
	C485.4,123.203,512,187.52,512,256c0,68.486-26.6,132.797-74.904,181.096l0,0l0,0C388.797,485.4,324.486,512,256,512z"/>
<path style="fill:#FFA733;" d="M256,0c-1.913,0-3.785,0.235-5.691,0.276v511.448c1.907,0.041,3.778,0.276,5.691,0.276
	c68.486,0,132.797-26.6,181.096-74.904C485.4,388.797,512,324.486,512,256c0-68.48-26.6-132.797-74.904-181.096
	C388.797,26.6,324.48,0,256,0z"/>
<path style="fill:#FFFFFF;" d="M161.493,367.214c-4.275,0-8.549-1.632-11.812-4.895c-6.526-6.52-6.526-17.103,0-23.624
	l189.015-189.015c6.526-6.526,17.099-6.526,23.624,0c6.526,6.52,6.526,17.103,0,23.624L173.305,362.319
	C170.041,365.583,165.768,367.214,161.493,367.214z"/>
<path style="fill:#FFE6B3;" d="M338.695,149.681l-88.264,88.264v47.248l111.888-111.888c6.526-6.52,6.526-17.103,0-23.624
	C355.794,143.155,345.222,143.155,338.695,149.681z"/>
<path style="fill:#FFFFFF;" d="M200.311,206.022c-12.834,0-25.669-4.884-35.436-14.656c-9.468-9.468-14.684-22.053-14.684-35.441
	s5.216-25.973,14.684-35.441c9.463-9.463,22.047-14.678,35.436-14.678c13.384,0,25.968,5.216,35.436,14.678l0,0v0.006h0.006
	c9.463,9.468,14.678,22.053,14.678,35.436c0,13.389-5.216,25.973-14.684,35.441C225.981,201.138,213.147,206.022,200.311,206.022z
	 M200.311,139.218c-4.46,0-8.653,1.741-11.807,4.895c-3.16,3.16-4.899,7.353-4.899,11.812c0,4.465,1.741,8.657,4.895,11.817
	c6.516,6.516,17.109,6.516,23.624,0c3.154-3.16,4.895-7.353,4.895-11.817c0-4.46-1.741-8.653-4.895-11.807
	c0-0.006,0-0.006-0.006-0.006C208.964,140.958,204.771,139.218,200.311,139.218z"/>
<path style="fill:#FFE6B3;" d="M322.826,395.221c-13.389,0-25.973-5.216-35.441-14.684c-9.463-9.463-14.678-22.047-14.678-35.436
	c0-13.389,5.216-25.973,14.684-35.441c9.463-9.463,22.047-14.678,35.436-14.678c13.384,0,25.968,5.216,35.436,14.678l0,0v0.006
	h0.006c9.463,9.468,14.678,22.053,14.678,35.436c0,13.389-5.216,25.973-14.684,35.441
	C348.8,390.007,336.216,395.221,322.826,395.221z M322.826,328.395c-4.46,0-8.653,1.741-11.807,4.895
	c-3.16,3.16-4.899,7.353-4.899,11.812c0,4.458,1.741,8.653,4.895,11.807c6.32,6.32,17.31,6.314,23.619,0.006
	c3.16-3.16,4.899-7.353,4.899-11.812s-1.741-8.653-4.895-11.807c0-0.006,0-0.006-0.006-0.006
	C331.479,330.136,327.286,328.395,322.826,328.395z"/>
<g>
</g>
<g>
</g>
<g>
</g>
<g>
</g>
<g>
</g>
<g>
</g>
<g>
</g>
<g>
</g>
<g>
</g>
<g>
</g>
<g>
</g>
<g>
</g>
<g>
</g>
<g>
</g>
<g>
</g>
</svg>
