<?xml version="1.0" encoding="iso-8859-1"?>
<!-- Generator: Adobe Illustrator 19.0.0, SVG Export Plug-In . SVG Version: 6.00 Build 0)  -->
<svg version="1.1" id="Layer_1" xmlns="http://www.w3.org/2000/svg" xmlns:xlink="http://www.w3.org/1999/xlink" x="0px" y="0px"
	 viewBox="0 0 291.691 291.691" style="enable-background:new 0 0 291.691 291.691;" xml:space="preserve">
<g>
	<path style="fill:#EFC75E;" d="M7.263,165.412L126.795,284.47c9.665,9.628,25.301,9.628,34.966,0l117.554-116.049
		c12.354-12.327,12.354-39.343,12.354-45.16V24.773C291.67,11.169,281.777,0,268.128,0L163.941,0.146
		c-16.485,0-28.839,4.103-41.203,16.421L7.263,130.574C-2.392,140.193-2.392,155.784,7.263,165.412z"/>
	<path style="fill:#D07C40;" d="M232.405,82.077c-12.573,0-22.794-10.221-22.794-22.794s10.221-22.794,22.794-22.794
		c12.573,0,22.794,10.23,22.794,22.794C255.2,71.856,244.979,82.077,232.405,82.077z"/>
	<path style="fill:#FFFFFF;" d="M232.405,45.606c7.54,0,13.676,6.118,13.676,13.676c0,7.54-6.136,13.676-13.676,13.676
		c-7.549,0-13.676-6.127-13.676-13.676S224.856,45.606,232.405,45.606z"/>
	<path style="fill:#D07C40;" d="M152.298,209.779l12.5-9.118l-25.566-109.32l-12.646,9.227L152.298,209.779z M88.21,171.512
		c3.565,1.55,7.249,1.924,11.06,1.121s7.467-2.717,10.969-5.753c5.161-4.449,7.896-9.473,8.224-15.044
		c0.319-5.571-1.723-10.877-6.164-15.91c-4.413-5.015-9.419-7.723-15.035-8.169c-5.616-0.429-10.996,1.586-16.147,6.054
		c-3.501,3.027-5.908,6.355-7.23,9.993c-1.322,3.638-1.431,7.312-0.365,11.023c1.067,3.702,2.881,7.021,5.452,9.938
		C81.572,167.719,84.654,169.962,88.21,171.512z M85.739,145.454c-0.182-1.678,0.438-3.1,1.833-4.322
		c1.404-1.213,2.899-1.614,4.513-1.185c2.553,0.656,5.389,2.763,8.489,6.273c3.118,3.547,4.823,6.61,5.124,9.191
		c0.228,1.659-0.356,3.1-1.751,4.313c-1.404,1.213-2.936,1.605-4.595,1.176c-2.526-0.629-5.361-2.726-8.479-6.273
		C87.745,151.079,86.031,148.016,85.739,145.454z M188.559,171.576c3.529,1.568,7.194,1.942,11.005,1.14s7.44-2.726,10.896-5.744
		c5.161-4.513,7.887-9.574,8.188-15.199c0.301-5.626-1.723-10.95-6.109-15.992c-4.376-5.033-9.382-7.786-14.98-8.224
		c-5.589-0.456-10.969,1.568-16.12,6.091c-3.456,3.009-5.844,6.373-7.139,10.048c-1.322,3.684-1.422,7.394-0.356,11.096
		c1.049,3.702,2.881,7.03,5.471,10.011C182.003,167.746,185.048,170.017,188.559,171.576z M186.133,145.363
		c-0.228-1.678,0.356-3.118,1.741-4.349c1.386-1.213,2.899-1.623,4.522-1.222c2.544,0.666,5.361,2.79,8.479,6.346
		c3.1,3.583,4.805,6.656,5.097,9.245c0.182,1.678-0.429,3.118-1.814,4.331c-1.386,1.231-2.881,1.623-4.486,1.194
		c-2.526-0.638-5.325-2.744-8.443-6.3C188.13,151.025,186.416,147.952,186.133,145.363z"/>
</g>
<g>
</g>
<g>
</g>
<g>
</g>
<g>
</g>
<g>
</g>
<g>
</g>
<g>
</g>
<g>
</g>
<g>
</g>
<g>
</g>
<g>
</g>
<g>
</g>
<g>
</g>
<g>
</g>
<g>
</g>
</svg>
